<?xml version="1.0" encoding="UTF-8" standalone="no"?>
<!-- Created with Inkscape (http://www.inkscape.org/) -->

<svg
   width="210mm"
   height="297mm"
   viewBox="0 0 210 297"
   version="1.1"
   id="svg5"
   sodipodi:docname="drawing.svg"
   inkscape:version="1.1.2 (0a00cf5339, 2022-02-04)"
   xmlns:inkscape="http://www.inkscape.org/namespaces/inkscape"
   xmlns:sodipodi="http://sodipodi.sourceforge.net/DTD/sodipodi-0.dtd"
   xmlns="http://www.w3.org/2000/svg"
   xmlns:svg="http://www.w3.org/2000/svg">
  <sodipodi:namedview
     id="namedview7"
     pagecolor="#505050"
     bordercolor="#eeeeee"
     borderopacity="1"
     inkscape:pageshadow="0"
     inkscape:pageopacity="0"
     inkscape:pagecheckerboard="0"
     inkscape:document-units="mm"
     showgrid="false"
     inkscape:zoom="0.96379011"
     inkscape:cx="502.70281"
     inkscape:cy="291.03847"
     inkscape:window-width="1838"
     inkscape:window-height="1009"
     inkscape:window-x="0"
     inkscape:window-y="0"
     inkscape:window-maximized="1"
     inkscape:current-layer="layer1" />
  <defs
     id="defs2" />
  <g
     inkscape:label="Layer 1"
     inkscape:groupmode="layer"
     id="layer1">
    <path
       style="fill:none;stroke:#000000;stroke-width:0.264583px;stroke-linecap:butt;stroke-linejoin:miter;stroke-opacity:1"
       d="m 69.703309,57.384055 c 0.08002,-1.813208 -0.217268,-3.649041 0,-5.454018 0.409091,-3.398527 1.789586,-6.447469 2.742022,-9.681252 0.336815,-1.143582 0.462029,-2.349809 0.878261,-3.466936 0.700423,-1.879867 1.683496,-3.642878 2.459993,-5.49262 0.495165,-1.179568 0.845298,-2.417239 1.353314,-3.59133 1.719694,-3.974432 1.123408,-0.855908 2.121125,-5.934432 0.186883,-0.951254 0.08191,-1.960631 0.378545,-2.883572 0.230923,-0.718504 0.854106,-1.252812 1.171014,-1.937752 0.419423,-0.906507 0.650983,-2.358178 1.222489,-2.929684 0.02582,-0.02582 0.336949,-0.795938 0.441811,-0.658428 1.617049,2.120467 1.367195,2.325991 2.629424,5.022927 11.127875,23.776346 -2.349233,-4.9131 5.995556,11.730531 2.618418,5.222417 3.943043,11.182532 7.443243,15.924527 1.145487,1.551882 1.134504,2.222534 1.898074,4.002042 0.22265,0.518885 0.93402,1.040059 1.09917,1.599957 0.71859,2.436267 -1.46808,-2.375048 0.63591,1.485217 0.0967,0.177425 0.23954,0.341456 0.27452,0.54047 0.0173,0.0981 -0.32485,0.209418 -0.22627,0.19517 1.36979,-0.19798 2.69432,-0.897559 4.16397,-1.06807 3.21832,-0.373396 6.29585,0.511421 9.45713,0.768882 2.40587,0.195937 4.86494,-0.220943 7.26845,0 0.92967,0.08546 2.31783,0.904441 3.11091,1.128119 0.70366,0.198459 1.45192,0.197475 2.1608,0.376399 2.23492,0.564097 4.14065,1.169943 6.48884,1.169943 0.13511,0 0.31873,-0.0599 0.38069,0.124394 0.48675,1.447763 -1.78909,3.394472 -2.79135,3.975232 -0.53812,0.311817 -1.21816,0.300516 -1.7726,0.582292 -0.41709,0.211966 -2.04443,1.461926 -2.24338,1.6139 -4.86592,3.717079 1.28006,-0.735491 -2.20262,1.312567 -1.84455,1.08472 -3.04521,2.825133 -4.72267,4.072818 -0.68847,0.512077 -1.58308,0.690541 -2.28734,1.180666 -0.55104,0.383492 -0.89585,1.013849 -1.43696,1.411224 -0.52363,0.384532 -3.59186,1.442818 -3.71787,1.588164 -0.64378,0.74258 -1.5298,1.997427 -2.49859,2.512536 -0.15876,0.08441 -0.3596,0 -0.5394,0 -0.0929,0.184447 -0.1071,0.438566 -0.27882,0.553337 -0.40394,0.269994 -2.60245,0.01913 -3.47015,0.886841 -0.45019,0.450191 2.41501,8.845227 2.46428,8.95741 2.30901,5.257422 5.85761,9.900007 8.93382,14.692384 0.36107,0.5625 0.52144,1.24444 0.91687,1.78333 0.4957,0.67554 1.3877,1.03801 1.77261,1.78226 0.18149,0.35094 -0.17659,0.98299 0,1.33616 0.11575,0.2315 0.40496,0.33404 0.54904,0.54905 0.30024,0.44801 -0.0872,1.71337 0,2.23158 0.1845,1.09648 0.40399,1.63245 0.92116,2.59725 0.47561,0.88727 0.13027,2.09824 0.326,3.00904 0.29898,1.39128 0.3482,1.37338 0.95761,1.98279 0.22055,0.22055 -0.44109,-0.4411 -0.66164,-0.66164 -1.08796,-1.08796 -0.54152,-0.67792 -2.52755,-1.61712 -3.33714,-1.57814 -6.49568,-3.82489 -9.41745,-6.08992 -8.25218,-6.39733 3.1756,1.40068 -9.16224,-7.07757 -3.715184,-2.552987 -8.06337,-4.195563 -11.629726,-6.92851 -0.896604,-0.687084 -1.519513,-1.687566 -2.410661,-2.381711 -0.562264,-0.437965 -1.252001,-0.69406 -1.812288,-1.134554 -0.61042,-0.479912 -0.95156,-1.29194 -1.636418,-1.657866 -0.333301,-0.178086 -0.893959,-0.114316 -1.033754,-0.465405 -0.174262,-0.437653 1.190157,-0.674568 1.421948,-0.99622 0.129907,-0.180268 0.03068,-1.562311 -0.239136,-1.280395 -0.80804,0.844272 -1.220616,1.99509 -1.892713,2.951131 -3.554161,5.055682 -6.753677,10.250905 -9.867844,15.55671 -1.609659,2.74247 -3.006175,5.814 -5.473319,7.96869 -1.045512,0.91311 -2.898166,2.11525 -4.059949,2.54256 -0.427403,0.15721 -0.938006,-0.15507 -1.366184,0 -3.301034,2.46477 0.221723,0.23416 -2.165093,0.96084 -0.839246,0.25551 -4.674328,2.57656 -5.521574,2.26482 -0.83234,-0.30626 -0.916154,-4.64004 -0.984425,-5.93122 -0.06598,-1.24791 0.189691,-2.51379 0,-3.74896 -0.422314,-2.74989 -0.227568,0.39712 -0.959763,-2.81709 -0.08963,-0.39348 0.05352,-0.81069 0,-1.21069 -0.134143,-1.00256 -0.408156,-1.25854 -0.653065,-2.17474 -0.578364,-2.16365 0.270317,-5.081213 1.249299,-6.854522 0.287147,-0.520133 0.767146,-0.911844 1.087371,-1.412295 1.233763,-1.92813 2.450706,-3.849794 3.744677,-5.752132 1.156888,-1.700808 0.977649,-0.983538 1.38656,-2.206913 -0.09098,-0.56659 0.447929,-0.08344 0.536178,-0.261657 0.158557,-0.32021 0.120332,-1.602568 -0.0043,-1.797272 -1.430173,-2.234449 -3.638356,-2.304651 -5.964459,-3.298577 -0.841878,-0.359727 -1.602367,-0.896098 -2.451412,-1.238572 -3.936273,-1.587747 -5.038241,-1.489726 -9.255527,-2.959712 -2.963246,-1.032875 -5.713905,-2.59648 -8.87484,-3.009037 -3.024124,-0.3947 -6.376212,0 -9.448551,0 -0.904072,0 -8.395079,0.116345 -8.587448,-0.238064 -0.393433,-0.724839 1.520694,-1.483069 1.916305,-1.729714 1.107227,-0.6903 2.072614,-1.618244 3.248174,-2.184394 0.72966,-0.351404 1.586537,-0.383289 2.315222,-0.736711 0.811847,-0.393756 1.42801,-1.14403 2.263749,-1.484144 1.258734,-0.512259 7.676993,-1.651381 8.386918,-1.79084 4.11439,-0.80823 8.162645,-1.759953 12.210947,-2.849255 0.562478,-0.15135 2.624323,-0.927383 3.061584,-1.308278 0.0696,-0.06063 0.197781,-0.478078 0.258439,-0.517951 0.192559,-0.929235 0.79533,-0.123663 1.150639,-0.299188 0.227975,-0.112617 0.311967,-0.42568 0.539398,-0.539395 0.44645,-0.223224 1.448824,0.01659 1.878772,-0.274524 0.665551,-0.450633 0.35565,-0.645729 1.123831,-0.840729 0.24703,-0.06271 0.540141,0.12074 0.764592,0 0.646319,-0.347676 1.563413,-0.760087 2.34632,-0.877189 2.171827,-0.324845 4.51159,0.178199 6.694736,0 0.781603,-0.0638 1.233863,-0.430094 1.866977,-0.747435 1.502225,-0.752975 2.075484,-0.708038 4.180051,-0.443955 z"
       id="path310" />
  </g>
</svg>
